# xmcd
#
# Track frame offsets:
#	150
#	16057
#	36204
#	54421
#	69199
#	94087
#	129418
#	142152
#	164984
#	182095
#	208569
#	223368
#	253625
#	266567
#
# Disc length: 3777 seconds
#
# Revision: 1
# Processed by: cddbd v1.5.2PL0 Copyright (c) Steve Scherf et al.
# Submitted via: audiograbber 1.83.01
#
DISCID=d30ebf0e
DTITLE=Various Artist - Golden Pop Hits 8
DYEAR=2007
DGENRE=Oldies
TTITLE0=Doctor and The Medics - Waterloo
TTITLE1=Gibson Brothers - Better Do It Salsa
TTITLE2=Santa Esmeralda - Don't Let Me Be Misunderstood
TTITLE3=Gary's Gang - Keep On Dancing
TTITLE4=Summer, Donna - Back Of Boogaloo
TTITLE5=Thomas, Evelyn - High Energy
TTITLE6=5000 Volts - I'm On Fire
TTITLE7=Ward, Anita - Ring My Bell
TTITLE8=Dollar - Shooting Star
TTITLE9=Sister Sledge - We Are Family
TTITLE10=Travolta , John - Greased Lightning
TTITLE11=Tex, Joe - Ain't Gonna Bump No More (With No Big Fat Woman)
TTITLE12=Rose Royce - Car Wash
TTITLE13=Fortunes, The - Seasons In The Sun
EXTD=
EXTT0=
EXTT1=
EXTT2=
EXTT3=
EXTT4=
EXTT5=
EXTT6=
EXTT7=
EXTT8=
EXTT9=
EXTT10=
EXTT11=
EXTT12=
EXTT13=
PLAYORDER=
